<svg version="1.1" xmlns="http://www.w3.org/2000/svg" style="display: block;" viewBox="0 0 2048 2048" width="1024" height="1024" preserveAspectRatio="none">
<path transform="translate(0,0)" fill="rgb(18,21,49)" d="M 204.88 1621.03 C 206.274 1585.46 205.071 1542.74 205.088 1506.52 L 205.089 1278.24 L 205.573 673.847 L 205.4 455.636 L 205.42 396.387 C 205.384 374.065 204.148 350.217 209.847 328.635 C 227.623 261.21 288.397 207.844 359.083 205.422 C 387.645 204.443 416.553 204.916 445.172 204.915 L 602.232 204.928 L 1094.5 205.016 L 1506.95 204.147 C 1543.71 204.025 1580.47 204.228 1617.22 204.757 C 1649.7 204.947 1687.89 202.023 1718.77 210.259 C 1758.96 220.63 1793.68 245.951 1815.82 281.053 C 1821.93 290.565 1827.57 303.224 1833.69 313.768 C 1868.85 331.414 1898.71 392.801 1900.34 430.365 C 1901.65 460.612 1900.88 495.183 1900.88 525.729 L 1900.99 705.261 L 1900.9 1268.73 L 1900.95 1613.92 L 1900.91 1727.75 C 1900.84 1777.31 1904.73 1802.41 1880.97 1849.09 C 1860.28 1889.97 1824.06 1920.85 1780.42 1934.81 C 1771.22 1937.78 1753.71 1942.38 1744.07 1943.37 L 1732.81 1947.64 C 1723.92 1950.98 1709.37 1949.89 1699.48 1949.92 L 1651.6 1950.05 L 1511.86 1951.06 L 1086.52 1955.22 C 938.854 1957.46 791.174 1958.79 643.489 1959.2 C 598.869 1959.76 554.247 1960.07 509.624 1960.15 C 486.245 1960.29 460.924 1961.35 437.636 1960.24 C 356.221 1956.37 326.768 1912.64 276.663 1858.68 C 259.828 1840.55 251.562 1829.29 237.276 1810.54 C 202.601 1765.03 184.179 1723.15 188.067 1665.07 C 189.249 1647.43 190.427 1634.29 204.88 1621.03 z"/>
<path transform="translate(0,0)" fill="rgb(254,105,50)" d="M 1833.69 313.768 C 1868.85 331.414 1898.71 392.801 1900.34 430.365 C 1901.65 460.612 1900.88 495.183 1900.88 525.729 L 1900.99 705.261 L 1900.9 1268.73 L 1900.95 1613.92 L 1900.91 1727.75 C 1900.84 1777.31 1904.73 1802.41 1880.97 1849.09 C 1860.28 1889.97 1824.06 1920.85 1780.42 1934.81 C 1771.22 1937.78 1753.71 1942.38 1744.07 1943.37 L 1732.81 1947.64 C 1723.92 1950.98 1709.37 1949.89 1699.48 1949.92 L 1651.6 1950.05 L 1511.86 1951.06 L 1086.52 1955.22 C 938.854 1957.46 791.174 1958.79 643.489 1959.2 C 598.869 1959.76 554.247 1960.07 509.624 1960.15 C 486.245 1960.29 460.924 1961.35 437.636 1960.24 C 356.221 1956.37 326.768 1912.64 276.663 1858.68 C 259.828 1840.55 251.562 1829.29 237.276 1810.54 C 202.601 1765.03 184.179 1723.15 188.067 1665.07 C 189.249 1647.43 190.427 1634.29 204.88 1621.03 C 204.796 1680.19 199.458 1724.8 237.37 1775.46 C 245.28 1786.03 252.702 1792.87 260.895 1802.57 C 272.592 1816.41 281.462 1830.67 295.123 1843.41 C 299.123 1847.13 306.671 1854.42 310.236 1858.28 C 316.557 1861.37 325.099 1867.4 331.668 1871.1 C 352.084 1882.82 374.763 1890.05 398.194 1892.3 C 420.073 1894.38 456.304 1893.35 479.188 1893.33 L 623.181 1893.28 L 1095.41 1893.27 L 1517.44 1893.34 L 1625.6 1893.33 C 1652.45 1893.33 1690.6 1894.76 1715.96 1889.03 C 1758.34 1879.44 1795.09 1853.24 1817.98 1816.31 C 1832.47 1792.8 1840.96 1766.09 1842.71 1738.53 C 1844.18 1717.93 1843.14 1683.52 1843.1 1662 L 1843.08 1522.01 L 1843.08 1076.35 L 1843.04 597.638 L 1843.05 439.642 C 1843.08 409.656 1844.04 376.921 1841.52 347.248 C 1840.88 339.747 1835.6 322.146 1833.69 313.768 z"/>
<path transform="translate(0,0)" fill="rgb(255,255,255)" d="M 204.88 1621.03 C 204.796 1680.19 199.458 1724.8 237.37 1775.46 C 245.28 1786.03 252.702 1792.87 260.895 1802.57 C 272.592 1816.41 281.462 1830.67 295.123 1843.41 C 299.123 1847.13 306.671 1854.42 310.236 1858.28 C 334.521 1895.63 380.292 1931.48 424.436 1939.44 C 458.366 1945.56 504.837 1943.24 540.205 1943.23 L 721.458 1943.22 L 1423.04 1943.2 L 1639.81 1943.19 L 1707.91 1943.17 C 1717.63 1943.16 1734.96 1942.65 1744.07 1943.37 L 1732.81 1947.64 C 1723.92 1950.98 1709.37 1949.89 1699.48 1949.92 L 1651.6 1950.05 L 1511.86 1951.06 L 1086.52 1955.22 C 938.854 1957.46 791.174 1958.79 643.489 1959.2 C 598.869 1959.76 554.247 1960.07 509.624 1960.15 C 486.245 1960.29 460.924 1961.35 437.636 1960.24 C 356.221 1956.37 326.768 1912.64 276.663 1858.68 C 259.828 1840.55 251.562 1829.29 237.276 1810.54 C 202.601 1765.03 184.179 1723.15 188.067 1665.07 C 189.249 1647.43 190.427 1634.29 204.88 1621.03 z"/>
<path transform="translate(0,0)" fill="rgb(255,255,255)" d="M 361.632 261.402 C 382.922 259.845 419.839 260.998 442.116 261.009 L 595.966 261.044 L 1079.42 261.045 L 1494.68 261.039 L 1622.06 261.012 C 1667.58 260.958 1707.67 254.354 1745.38 284.757 C 1794.06 324 1787.08 372.79 1787.01 428.006 L 1786.95 551.542 L 1786.96 962.947 L 1786.97 1450.05 L 1787.02 1605.34 C 1787.02 1631.47 1788.08 1659.27 1786.48 1685.25 C 1783.07 1740.62 1740.38 1780.96 1686.76 1786.61 C 1665.08 1788.11 1630.17 1786.99 1607.48 1786.99 L 1453.78 1786.96 L 977.291 1786.95 L 562.268 1786.95 L 431.536 1786.97 C 386.402 1787.03 342.755 1793.74 305.037 1764.65 C 255.273 1726.27 260.964 1680.15 261.06 1624.83 L 261.1 1512.39 L 261.067 1123.7 L 261.048 612.534 L 261.006 450.332 C 261.002 421.887 259.985 391.925 261.595 363.62 C 264.766 307.878 307.498 267.25 361.632 261.402 z"/>
<path transform="translate(0,0)" fill="rgb(18,21,49)" d="M 587.83 456.198 C 564.76 447.396 547.332 431.244 556.67 403.668 C 560.009 393.808 568.668 385.414 578.294 381.266 C 599.363 374.266 626.229 371.239 648.046 368.24 C 772.241 350.874 898.663 358.751 1019.74 391.398 C 1040.79 396.935 1075.88 406.922 1096.61 414.825 C 1113.15 421.131 1152.42 464.723 1167.69 477.091 C 1173.27 481.608 1183.77 493.64 1190.38 496.314 C 1210.02 504.273 1234.12 509.227 1254.64 515.307 C 1276.84 498.278 1301.06 470.641 1329.26 473.807 C 1337.43 474.801 1345.21 477.84 1351.88 482.643 C 1359.49 488.007 1382.99 512.423 1391.08 520.46 L 1432.54 561.839 C 1442.44 571.783 1460.4 588.372 1465.35 601.023 C 1482.32 616.116 1500.34 630.427 1501.91 655.27 C 1503.54 680.913 1476.61 707.103 1462.48 728.265 C 1467.96 744.233 1475.94 766.399 1478.69 782.916 C 1489.42 797.493 1520.99 826.374 1527.28 840.006 C 1558.25 871.45 1559.27 870.938 1571.09 914.51 C 1595.42 1004.2 1604.79 1092.53 1604.13 1185.18 C 1603.57 1229.26 1600.37 1273.28 1594.57 1316.98 C 1592.26 1335.7 1591.33 1364.78 1577.68 1378.38 C 1570.02 1385.91 1559.64 1390.04 1548.89 1389.84 C 1538.54 1389.69 1528.7 1385.33 1521.64 1377.76 C 1515.31 1370.85 1510.11 1358.45 1507.4 1349.41 C 1480.09 1341.6 1476.65 1317.47 1467.3 1293.52 C 1459.95 1274.81 1452.36 1256.2 1444.52 1237.68 C 1412.48 1162.99 1373.51 1091.46 1328.11 1024.05 C 1320.65 1013.2 1308.22 994.44 1299.64 985.481 C 1275.89 978.545 1248.14 972.794 1223.53 966.259 C 1208.39 972.67 1174.97 990.618 1159.51 999.068 C 1163.99 1014.68 1164.26 1028.08 1156.13 1042.83 C 1149.27 1055.09 1137.84 1064.13 1124.34 1067.97 C 1109.79 1072.11 1095.32 1069.64 1082.33 1062.29 L 868.145 1276.83 C 824.641 1320.24 776.249 1366.99 734.195 1411.3 C 741.153 1425.38 743.267 1438.42 737.865 1453.75 C 732.776 1467.78 722.21 1479.15 708.586 1485.25 C 695.366 1491.04 680.372 1491.25 666.994 1485.84 C 664.773 1484.93 662.568 1483.97 660.382 1482.97 C 655.203 1486.14 650.106 1489.31 644.566 1491.82 C 602.283 1510.99 555.72 1496.1 531.834 1456.37 C 530.224 1453.69 528.664 1450.98 527.154 1448.25 C 514.571 1438.79 504.261 1430.62 496.297 1416.77 C 476.442 1382.25 480.687 1347.3 501.741 1315.1 C 495.195 1300.83 493.124 1286.88 498.783 1271.7 C 503.634 1258.98 513.421 1248.75 525.921 1243.35 C 541.414 1236.63 554.366 1238.84 569.306 1244.5 L 780.118 1033.38 C 826.925 986.03 874.011 938.954 921.372 892.157 C 914.928 878.33 911.773 866.001 916.323 850.743 C 920.112 838.128 928.769 827.542 940.38 821.323 C 954.718 813.644 967.862 814.315 982.768 818.681 C 992.202 797.042 1004.77 772.585 1015.05 750.938 L 999.188 696.27 C 991.23 692.838 965.632 671.128 956.431 664.664 C 883.148 613.191 804.633 568.247 721.573 534.231 C 699.649 525.217 677.598 516.518 655.425 508.136 C 622.472 495.746 595.031 495.881 587.83 456.198 z"/>
<path transform="translate(0,0)" fill="rgb(254,105,50)" d="M 1192.09 925.981 C 1249.88 941.144 1264.07 932.316 1299.64 985.481 C 1275.89 978.545 1248.14 972.794 1223.53 966.259 C 1208.39 972.67 1174.97 990.618 1159.51 999.068 C 1163.99 1014.68 1164.26 1028.08 1156.13 1042.83 C 1149.27 1055.09 1137.84 1064.13 1124.34 1067.97 C 1109.79 1072.11 1095.32 1069.64 1082.33 1062.29 L 868.145 1276.83 C 824.641 1320.24 776.249 1366.99 734.195 1411.3 C 741.153 1425.38 743.267 1438.42 737.865 1453.75 C 732.776 1467.78 722.21 1479.15 708.586 1485.25 C 695.366 1491.04 680.372 1491.25 666.994 1485.84 C 664.773 1484.93 662.568 1483.97 660.382 1482.97 C 655.203 1486.14 650.106 1489.31 644.566 1491.82 C 602.283 1510.99 555.72 1496.1 531.834 1456.37 C 530.224 1453.69 528.664 1450.98 527.154 1448.25 C 564.946 1465.97 592.764 1466.65 628.27 1442.91 C 630.274 1443.97 632.31 1444.97 634.375 1445.9 C 666.54 1460.25 702.629 1438.27 705.396 1403.55 C 706.373 1391.29 704.01 1383.99 699.305 1373.24 C 737.657 1336.01 776.351 1296.06 814.29 1258.13 L 1050.92 1021.47 C 1063.78 1028.77 1076.64 1031.82 1091.34 1027.81 C 1104.44 1024.12 1115.49 1015.29 1121.97 1003.32 C 1129.63 989.125 1129.16 975.431 1124.9 960.61 C 1142.47 950.555 1173.59 934.97 1192.09 925.981 z"/>
<path transform="translate(0,0)" fill="rgb(254,105,50)" d="M 1527.28 840.006 C 1558.25 871.45 1559.27 870.938 1571.09 914.51 C 1595.42 1004.2 1604.79 1092.53 1604.13 1185.18 C 1603.57 1229.26 1600.37 1273.28 1594.57 1316.98 C 1592.26 1335.7 1591.33 1364.78 1577.68 1378.38 C 1570.02 1385.91 1559.64 1390.04 1548.89 1389.84 C 1538.54 1389.69 1528.7 1385.33 1521.64 1377.76 C 1515.31 1370.85 1510.11 1358.45 1507.4 1349.41 C 1546.93 1350.38 1554.45 1330.77 1558.01 1296.2 C 1559.15 1285.15 1560.96 1273.23 1562.28 1262.07 C 1575.79 1153.64 1571.94 1043.74 1550.89 936.51 C 1547.44 918.783 1543.66 901.482 1539.15 884.004 C 1535.74 870.798 1529.75 854.47 1527.51 841.35 L 1527.28 840.006 z"/>
<path transform="translate(0,0)" fill="rgb(254,105,50)" d="M 587.83 456.198 C 610.127 461.696 648.471 476.543 670.058 485.27 C 785.701 532.02 900.399 596.743 994.498 679.185 C 996.721 685.67 997.705 689.552 999.188 696.27 C 991.23 692.838 965.632 671.128 956.431 664.664 C 883.148 613.191 804.633 568.247 721.573 534.231 C 699.649 525.217 677.598 516.518 655.425 508.136 C 622.472 495.746 595.031 495.881 587.83 456.198 z"/>
<path transform="translate(0,0)" fill="rgb(254,105,50)" d="M 1465.35 601.023 C 1482.32 616.116 1500.34 630.427 1501.91 655.27 C 1503.54 680.913 1476.61 707.103 1462.48 728.265 C 1467.96 744.233 1475.94 766.399 1478.69 782.916 C 1442.53 749.73 1442.96 734.406 1428.96 689.055 C 1438.28 675.741 1448.93 662.92 1457.93 649.394 C 1469.38 632.205 1469.42 620.283 1465.35 601.023 z"/>
<path transform="translate(0,0)" fill="rgb(18,21,49)" d="M 1176.7 558.931 C 1229.1 571.774 1283.86 589.098 1336.76 602.526 C 1339.59 608.92 1349.08 644.458 1351.59 653.741 C 1361.24 689.422 1372.87 726.286 1381.6 762.007 C 1380.61 766.122 1275.77 871.163 1263.47 883.087 L 1159.98 855.36 C 1142.88 850.774 1119.74 843.801 1103.09 840.436 C 1100.43 835.833 1091.87 802.859 1089.6 794.967 C 1078.67 756.854 1068.52 718.287 1057.3 680.238 C 1068.92 666.816 1084.94 651.553 1097.66 638.824 C 1124.33 612.513 1150.68 585.881 1176.7 558.931 z"/>
<path transform="translate(0,0)" fill="rgb(4,202,165)" d="M 1176.7 558.931 C 1229.1 571.774 1283.86 589.098 1336.76 602.526 C 1339.59 608.92 1349.08 644.458 1351.59 653.741 C 1361.24 689.422 1372.87 726.286 1381.6 762.007 C 1368.1 759.457 1355.37 755.134 1342.07 751.559 C 1331.39 712.89 1319.97 670.891 1308.29 632.578 C 1268.68 620.964 1228.29 611.478 1188.48 600.055 C 1159.21 629.109 1126.96 660.639 1098.91 690.634 L 1119.61 766.503 C 1122.78 778.138 1128.16 800.034 1132.3 810.309 C 1126.92 815.585 1117.83 825.405 1112.62 829.736 L 1103.09 840.436 C 1100.43 835.833 1091.87 802.859 1089.6 794.967 C 1078.67 756.854 1068.52 718.287 1057.3 680.238 C 1068.92 666.816 1084.94 651.553 1097.66 638.824 C 1124.33 612.513 1150.68 585.881 1176.7 558.931 z"/>
<path transform="translate(0,0)" fill="rgb(255,255,255)" d="M 1176.7 558.931 C 1229.1 571.774 1283.86 589.098 1336.76 602.526 L 1325.47 613.193 C 1293.6 604.054 1261.61 595.3 1229.53 586.933 C 1214.65 582.947 1196.32 578.542 1181.97 573.78 C 1147.7 607.569 1104.46 649.312 1072.16 684.507 C 1086.53 732.916 1098.85 781.328 1112.62 829.736 L 1103.09 840.436 C 1100.43 835.833 1091.87 802.859 1089.6 794.967 C 1078.67 756.854 1068.52 718.287 1057.3 680.238 C 1068.92 666.816 1084.94 651.553 1097.66 638.824 C 1124.33 612.513 1150.68 585.881 1176.7 558.931 z"/>
<path transform="translate(0,0)" fill="rgb(8,147,137)" d="M 1342.07 751.559 C 1355.37 755.134 1368.1 759.457 1381.6 762.007 C 1380.61 766.122 1275.77 871.163 1263.47 883.087 L 1159.98 855.36 C 1142.88 850.774 1119.74 843.801 1103.09 840.436 L 1112.62 829.736 C 1117.83 825.405 1126.92 815.585 1132.3 810.309 C 1170.26 821.267 1215.48 833.542 1253.75 842.723 C 1269.64 827.824 1287.73 806.709 1304.05 791.169 C 1310.8 784.732 1337.31 757.98 1342.07 751.559 z"/>
<path transform="translate(0,0)" fill="rgb(4,202,165)" d="M 1218.78 630.428 C 1219.42 630.752 1219.59 630.803 1220.25 631.373 C 1223.91 634.577 1270.43 711.915 1274.22 719.712 C 1277.55 726.43 1279.67 733.684 1280.47 741.138 C 1282.26 757.461 1277.35 773.81 1266.89 786.46 C 1253.9 802.043 1239.79 806.836 1220.25 808.687 C 1208.52 808.69 1198.66 805.981 1188.58 800.005 C 1174.18 791.318 1163.83 777.252 1159.82 760.916 C 1157.45 750.885 1157.78 740.406 1160.76 730.541 C 1164.96 716.62 1178 697.183 1185.9 684.203 L 1218.78 630.428 z"/>
<path transform="translate(0,0)" fill="rgb(18,21,49)" d="M 1188.29 710.624 C 1191.38 713.775 1195.86 724.914 1200.78 729.266 C 1212.62 740.406 1235.95 745.433 1243.18 760.907 C 1250.79 777.179 1243.44 785.412 1229.64 791.446 C 1217.5 794.216 1204.77 791.897 1194.35 785.026 C 1184.45 778.421 1177.56 768.174 1175.17 756.513 C 1171.39 738.117 1178.77 725.152 1188.29 710.624 z"/>
<path transform="translate(0,0)" fill="rgb(18,21,49)" d="M 1219.38 659.597 C 1226.63 666.752 1241.26 696.848 1248.68 707.369 C 1263.56 728.455 1267.37 740.046 1261.92 765.519 L 1258.55 756.301 C 1243.39 725.032 1215.66 732.405 1203.51 704.335 C 1198.33 692.373 1212.56 670.893 1219.38 659.597 z"/>
<path transform="translate(0,0)" fill="rgb(4,202,165)" d="M 945.228 917.332 C 951.621 923.248 956.637 928.473 962.611 934.843 C 973.058 945.391 983.854 956.05 994.14 966.714 C 1002.99 975.589 1016.36 989.639 1025.76 997.523 L 851.535 1171.49 C 834.577 1188.29 818.049 1205.49 800.893 1222.1 C 790.766 1211.73 780.703 1201.31 770.704 1190.82 C 761.743 1181.91 747.243 1168.24 739.578 1158.93 C 723.79 1147.21 712.181 1162.33 722.127 1175.5 C 708.186 1189.27 687.503 1208.09 675.339 1222.45 C 658.607 1207.58 645.836 1224.05 657.853 1239.29 C 645.1 1252.76 623.679 1271.94 613.239 1285.6 L 595.413 1267.89 L 945.228 917.332 z"/>
<path transform="translate(0,0)" fill="rgb(8,147,137)" d="M 994.14 966.714 C 1002.99 975.589 1016.36 989.639 1025.76 997.523 L 851.535 1171.49 C 834.577 1188.29 818.049 1205.49 800.893 1222.1 C 790.766 1211.73 780.703 1201.31 770.704 1190.82 C 777.235 1185.14 787.31 1174.22 793.829 1167.68 L 841.779 1119.64 C 892.893 1068.99 943.681 1018.02 994.14 966.714 z"/>
<path transform="translate(0,0)" fill="rgb(255,255,255)" d="M 945.228 917.332 C 951.621 923.248 956.637 928.473 962.611 934.843 C 909.998 985.794 857.296 1040.12 805.391 1092.08 L 760.976 1136.21 C 756.159 1141.04 742.802 1154.09 739.578 1158.93 C 723.79 1147.21 712.181 1162.33 722.127 1175.5 C 708.186 1189.27 687.503 1208.09 675.339 1222.45 C 658.607 1207.58 645.836 1224.05 657.853 1239.29 C 645.1 1252.76 623.679 1271.94 613.239 1285.6 L 595.413 1267.89 L 945.228 917.332 z"/>
<path transform="translate(0,0)" fill="rgb(254,105,50)" d="M 629.879 407.202 C 777.585 382.748 929.039 394.999 1070.89 442.876 C 1066.9 448.119 1060.98 456.383 1056.73 461.042 C 1042.68 480.535 1022.84 503.92 1007.56 523.381 C 919.273 480.284 832.638 443.187 735.915 423.52 C 715.19 419.305 693.366 416.515 672.943 411.768 C 658.564 410.478 644.208 408.956 629.879 407.202 z"/>
<path transform="translate(0,0)" fill="rgb(255,255,255)" d="M 629.879 407.202 C 777.585 382.748 929.039 394.999 1070.89 442.876 C 1066.9 448.119 1060.98 456.383 1056.73 461.042 C 1043.13 456.21 1025.98 450.972 1012.02 446.863 C 914.995 418.793 814.171 406.08 713.212 409.185 C 706.08 409.347 677.429 409.326 672.943 411.768 C 658.564 410.478 644.208 408.956 629.879 407.202 z"/>
<path transform="translate(0,0)" fill="rgb(254,105,50)" d="M 1480.35 884.148 C 1486.47 878.918 1492.73 873.854 1499.13 868.963 C 1519.84 951.805 1536.42 1043.14 1535.03 1128.96 C 1535.04 1131.62 1535.12 1134.66 1535.04 1137.28 C 1535.41 1166.59 1534.03 1195.89 1530.92 1225.03 C 1529.69 1237.12 1525.83 1259.31 1525.51 1269.72 L 1522.68 1267.65 C 1522.93 1259.53 1516.46 1224.5 1514.83 1215.75 C 1497.01 1116.92 1464.96 1021.21 1419.69 931.576 C 1439.37 916.047 1460.32 898.945 1480.35 884.148 z"/>
<path transform="translate(0,0)" fill="rgb(255,255,255)" d="M 1480.35 884.148 C 1486.47 878.918 1492.73 873.854 1499.13 868.963 C 1519.84 951.805 1536.42 1043.14 1535.03 1128.96 L 1532.2 1124.6 C 1521.13 1052.22 1504.89 952.02 1480.35 884.148 z"/>
<path transform="translate(0,0)" fill="rgb(254,194,192)" d="M 1532.2 1124.6 L 1535.03 1128.96 C 1535.04 1131.62 1535.12 1134.66 1535.04 1137.28 C 1532.78 1132.47 1532.81 1129.84 1532.2 1124.6 z"/>
<path transform="translate(0,0)" fill="rgb(224,73,24)" d="M 614.217 426.258 C 622.846 426.814 635.143 427.332 643.287 428.946 C 662.166 430.329 686.36 434.905 704.977 438.358 C 808.261 458.373 907.989 493.655 1000.88 543.045 C 1003.08 577.343 1009.91 614.538 1011.43 648.593 C 986.933 625.188 965.948 610.279 938.037 590.492 C 841.457 522.572 735.767 468.637 624.098 430.286 C 622.545 429.936 616.07 427.043 614.217 426.258 z"/>
<path transform="translate(0,0)" fill="rgb(196,83,33)" d="M 614.217 426.258 C 622.846 426.814 635.143 427.332 643.287 428.946 C 637.125 429.827 626.23 428.12 624.316 429.203 L 624.098 430.286 C 622.545 429.936 616.07 427.043 614.217 426.258 z"/>
<path transform="translate(0,0)" fill="rgb(224,73,24)" d="M 1299.64 928.937 C 1332.61 931.18 1366.75 935.183 1399.89 938.105 C 1409.64 955.942 1422.23 984.615 1430.17 1003.51 C 1467.08 1091.33 1495.12 1192.38 1504.34 1287.47 C 1500.15 1282.86 1476.8 1222.28 1471.99 1211.47 C 1461.01 1187.3 1449.59 1163.34 1437.71 1139.6 C 1400.02 1064.26 1353.68 993.563 1299.64 928.937 z"/>
<path transform="translate(0,0)" fill="rgb(246,101,47)" d="M 1288.93 907.55 C 1299.03 896.124 1419.39 774.713 1423.08 774.471 L 1426.12 778.077 C 1447.8 801.96 1469.32 824.758 1490.34 849.291 L 1473.4 862.406 C 1454.49 877.895 1429.51 898.576 1410.07 912.718 C 1408.44 914.291 1405.66 915.92 1403.68 917.22 C 1377.09 914.995 1350.52 912.593 1323.97 910.015 C 1316.2 910.117 1297.45 908.19 1288.93 907.55 z"/>
<path transform="translate(0,0)" fill="rgb(224,73,24)" d="M 1288.93 907.55 C 1299.03 896.124 1419.39 774.713 1423.08 774.471 L 1426.12 778.077 C 1426.38 783.648 1430.46 795.713 1432.23 801.59 C 1429.85 802.685 1329.79 903.326 1323.97 910.015 C 1316.2 910.117 1297.45 908.19 1288.93 907.55 z"/>
<path transform="translate(0,0)" fill="rgb(254,105,50)" d="M 1432.23 801.59 C 1430.46 795.713 1426.38 783.648 1426.12 778.077 C 1447.8 801.96 1469.32 824.758 1490.34 849.291 L 1473.4 862.406 C 1454.49 877.895 1429.51 898.576 1410.07 912.718 C 1409.09 910.649 1409.12 909.551 1409.84 907.069 C 1417.09 882.243 1433.49 844.105 1436.47 819.446 C 1434.91 814.059 1433.5 807.157 1432.23 801.59 z"/>
<path transform="translate(0,0)" fill="rgb(255,255,255)" d="M 1432.23 801.59 C 1430.46 795.713 1426.38 783.648 1426.12 778.077 C 1447.8 801.96 1469.32 824.758 1490.34 849.291 L 1473.4 862.406 C 1463.16 848.987 1447.81 832.397 1436.47 819.446 C 1434.91 814.059 1433.5 807.157 1432.23 801.59 z"/>
<path transform="translate(0,0)" fill="rgb(246,101,47)" d="M 1090.29 452.86 C 1113.95 474.618 1140 497.702 1162.91 519.88 L 1164.32 521.465 C 1159.86 529.873 1045.07 643.002 1033.44 653.778 C 1031.37 627.417 1027.23 601.081 1024.63 574.782 C 1023.79 566.342 1018.47 540.651 1023.98 535.806 C 1026.97 531.63 1030.85 526.944 1034.18 522.958 C 1048.89 505.31 1062.62 486.456 1077.5 468.994 L 1090.29 452.86 z"/>
<path transform="translate(0,0)" fill="rgb(254,105,50)" d="M 1090.29 452.86 C 1113.95 474.618 1140 497.702 1162.91 519.88 C 1158.64 520.372 1132.25 512.826 1126.73 511.205 C 1106.64 515.015 1086.74 519.787 1067.11 525.504 C 1059.75 527.59 1028.19 538.352 1023.98 535.806 C 1026.97 531.63 1030.85 526.944 1034.18 522.958 C 1048.89 505.31 1062.62 486.456 1077.5 468.994 L 1090.29 452.86 z"/>
<path transform="translate(0,0)" fill="rgb(255,255,255)" d="M 1090.29 452.86 C 1113.95 474.618 1140 497.702 1162.91 519.88 C 1158.64 520.372 1132.25 512.826 1126.73 511.205 C 1114.28 502.402 1089.22 479.528 1077.5 468.994 L 1090.29 452.86 z"/>
<path transform="translate(0,0)" fill="rgb(4,202,165)" d="M 722.127 1175.5 C 732.745 1185.9 743.235 1196.44 753.595 1207.1 C 762.399 1215.77 776.474 1228.95 783.998 1238.33 C 770.382 1253.48 751.8 1271.79 736.868 1286 C 727.763 1275.89 714.678 1264.01 706.835 1254.75 C 696.599 1243.72 685.6 1233.61 675.339 1222.45 C 687.503 1208.09 708.186 1189.27 722.127 1175.5 z"/>
<path transform="translate(0,0)" fill="rgb(8,147,137)" d="M 753.595 1207.1 C 762.399 1215.77 776.474 1228.95 783.998 1238.33 C 770.382 1253.48 751.8 1271.79 736.868 1286 C 727.763 1275.89 714.678 1264.01 706.835 1254.75 C 718.719 1244.2 742.329 1219.14 753.595 1207.1 z"/>
<path transform="translate(0,0)" fill="rgb(4,202,165)" d="M 657.853 1239.29 C 668.03 1247.24 680.113 1261.88 689.737 1271.04 C 697.842 1278.58 714.215 1293.66 720.445 1301.98 C 705.435 1317.3 690.298 1332.5 675.038 1347.57 C 665.914 1338.48 653.439 1326.81 645.004 1317.54 C 634.397 1307.19 623.717 1296.14 613.239 1285.6 C 623.679 1271.94 645.1 1252.76 657.853 1239.29 z"/>
<path transform="translate(0,0)" fill="rgb(8,147,137)" d="M 689.737 1271.04 C 697.842 1278.58 714.215 1293.66 720.445 1301.98 C 705.435 1317.3 690.298 1332.5 675.038 1347.57 C 665.914 1338.48 653.439 1326.81 645.004 1317.54 C 660.652 1301.57 673.028 1287.01 689.737 1271.04 z"/>
<path transform="translate(0,0)" fill="rgb(4,202,165)" d="M 1270.28 548.044 C 1280.83 539.719 1314.04 509.163 1326.31 509.17 C 1332.31 509.174 1344.57 523.229 1349.57 528.62 C 1365.27 543.795 1386.27 563.782 1400.58 579.931 C 1398.2 591.455 1385.56 605.249 1376.92 613.271 C 1374 601.645 1368.95 585.551 1365.22 574.026 C 1344.07 567.303 1321.19 562.105 1299.6 555.719 C 1289.73 552.988 1280.26 550.369 1270.28 548.044 z"/>
<path transform="translate(0,0)" fill="rgb(255,255,255)" d="M 1270.28 548.044 C 1280.83 539.719 1314.04 509.163 1326.31 509.17 C 1332.31 509.174 1344.57 523.229 1349.57 528.62 L 1348.03 529.313 C 1340.62 527.92 1334.65 525.817 1328.41 530.949 C 1318.27 539.297 1310.3 547.864 1299.6 555.719 C 1289.73 552.988 1280.26 550.369 1270.28 548.044 z"/>
<path transform="translate(0,0)" fill="rgb(254,105,50)" d="M 1010.8 839.693 C 1022.98 818.206 1034.23 791.905 1045.99 769.425 C 1048.75 777.8 1051 786.332 1053.33 794.835 L 1073.96 869.103 L 1088.94 873.243 C 1081.92 880.286 1073.53 889.141 1066.37 895.806 L 1026.55 855.951 L 1010.8 839.693 z"/>
<path transform="translate(0,0)" fill="rgb(255,255,255)" d="M 1010.8 839.693 C 1022.98 818.206 1034.23 791.905 1045.99 769.425 C 1048.75 777.8 1051 786.332 1053.33 794.835 C 1046.73 807.139 1030.54 843.157 1026.55 855.951 L 1010.8 839.693 z"/>
<path transform="translate(0,0)" fill="rgb(4,202,165)" d="M 969.038 891.615 C 960.854 882.614 940.327 868.666 954.405 855.171 C 957.63 852.109 961.99 850.539 966.426 850.842 C 975.797 851.393 983.153 861.252 989.612 868.093 C 1006.28 884.165 1033.6 910.914 1048.37 927.799 C 1047.22 939.339 1040.65 947.291 1031.31 953.69 C 1011.81 934.928 987.535 911.156 969.038 891.615 z"/>
<path transform="translate(0,0)" fill="rgb(255,255,255)" d="M 969.038 891.615 C 960.854 882.614 940.327 868.666 954.405 855.171 C 957.63 852.109 961.99 850.539 966.426 850.842 C 975.797 851.393 983.153 861.252 989.612 868.093 C 974.752 871.069 969.401 876.224 969.038 891.615 z"/>
<path transform="translate(0,0)" fill="rgb(4,202,165)" d="M 549.522 1314.95 C 543.073 1308.7 531.943 1299.81 531.116 1290.99 C 530.693 1286.67 532.187 1282.38 535.202 1279.26 C 538.197 1276.17 542.358 1274.5 546.659 1274.64 C 556.139 1275.01 565.19 1286.62 571.915 1293.53 C 590.922 1312.23 609.697 1331.17 628.237 1350.34 C 622.327 1363.29 618.945 1365.59 607.119 1373.13 L 549.522 1314.95 z"/>
<path transform="translate(0,0)" fill="rgb(255,255,255)" d="M 549.522 1314.95 C 543.073 1308.7 531.943 1299.81 531.116 1290.99 C 530.693 1286.67 532.187 1282.38 535.202 1279.26 C 538.197 1276.17 542.358 1274.5 546.659 1274.64 C 556.139 1275.01 565.19 1286.62 571.915 1293.53 C 556.221 1294.92 550.971 1298.63 549.522 1314.95 z"/>
<path transform="translate(0,0)" fill="rgb(254,105,50)" d="M 526.174 1341.7 C 531.309 1346.18 534.404 1349.29 539.075 1354.29 C 551.304 1365.78 562.284 1377.99 574.347 1389.59 L 602.415 1418.19 C 588.405 1425.54 573.242 1427.99 557.862 1423.42 C 546.121 1419.82 536.003 1412.24 529.253 1401.98 C 515.264 1382.79 516.307 1362.13 526.174 1341.7 z"/>
<path transform="translate(0,0)" fill="rgb(224,73,24)" d="M 530.161 1401.76 C 532.497 1399.55 535.337 1400.17 538.672 1400.18 C 551.855 1400.19 563.483 1397.46 574.347 1389.59 L 602.415 1418.19 C 588.405 1425.54 573.242 1427.99 557.862 1423.42 C 546.121 1419.82 536.003 1412.24 529.253 1401.98 L 530.161 1401.76 z"/>
<path transform="translate(0,0)" fill="rgb(255,255,255)" d="M 526.174 1341.7 C 531.309 1346.18 534.404 1349.29 539.075 1354.29 C 530.732 1372.42 529.599 1381.86 530.161 1401.76 L 529.253 1401.98 C 515.264 1382.79 516.307 1362.13 526.174 1341.7 z"/>
<path transform="translate(0,0)" fill="rgb(224,73,24)" d="M 1088.94 873.243 L 1173.51 895.338 C 1150.05 907.845 1126.52 920.203 1102.9 932.412 C 1090.84 920.095 1078.67 907.892 1066.37 895.806 C 1073.53 889.141 1081.92 880.286 1088.94 873.243 z"/>
<path transform="translate(0,0)" fill="rgb(8,147,137)" d="M 1400.58 579.931 C 1410.09 588.267 1431.12 605.551 1431.8 618.496 C 1432.44 630.814 1403.16 664.533 1394.93 675.822 C 1388.86 655.333 1383.18 633.367 1376.92 613.271 C 1385.56 605.249 1398.2 591.455 1400.58 579.931 z"/>
<path transform="translate(0,0)" fill="rgb(8,147,137)" d="M 628.237 1350.34 C 642.206 1363.21 694.199 1405.74 656.033 1414.78 C 645.98 1417.17 614.616 1381.59 607.119 1373.13 C 618.945 1365.59 622.327 1363.29 628.237 1350.34 z"/>
<path transform="translate(0,0)" fill="rgb(8,147,137)" d="M 1048.37 927.799 C 1058.11 937.125 1091.83 966.288 1092.1 978.607 C 1092.23 982.949 1090.5 987.138 1087.35 990.122 C 1072.67 1003.76 1041.32 964.851 1031.31 953.69 C 1040.65 947.291 1047.22 939.339 1048.37 927.799 z"/>
<path transform="translate(0,0)" fill="rgb(151,99,93)" d="M 1522.68 1267.65 L 1525.51 1269.72 C 1525.3 1270.57 1524.73 1271.85 1524.39 1272.71 C 1522.84 1271.57 1523.15 1270.23 1522.68 1267.65 z"/>
<path transform="translate(0,0)" fill="rgb(18,21,49)" d="M 1139.91 1518.68 C 1206.68 1519.4 1274.56 1518.76 1341.42 1518.75 C 1347.48 1528.52 1348.83 1537.6 1359.7 1541.83 C 1359.7 1541.83 1364.02 1549.14 1364.53 1549.99 C 1364.77 1539.72 1364.76 1529.1 1364.86 1518.8 C 1463.09 1518.78 1561.37 1518.69 1659.59 1518.73 C 1677.54 1518.74 1691.18 1520.83 1704 1534.43 C 1738.61 1571.16 1734.12 1582.02 1733.89 1629.55 C 1733.8 1648.33 1729.62 1657.35 1716.35 1670.18 C 1726.06 1692.56 1734.79 1716.03 1744.61 1738.74 C 1745.02 1739.77 1744.84 1740.11 1744.82 1741.35 C 1739.41 1743.1 1679.41 1741.93 1669.33 1741.91 C 1665.83 1734.52 1663.6 1727.37 1656.53 1723.42 C 1648.91 1724.18 1650.83 1736.12 1650.98 1741.91 L 1391.39 1741.87 C 1388.8 1737.35 1383.82 1727.75 1379.93 1724.37 C 1378.88 1723.46 1377.58 1724.37 1375.61 1724.97 C 1371.2 1722.05 1364.78 1708.27 1361.99 1702.95 L 1362.34 1741.83 L 1159.04 1741.91 L 1159.01 1724.04 L 1140.04 1724.15 L 1139.95 1711.46 C 1129.1 1711.56 1118.24 1711.39 1107.39 1710.95 L 1107.48 1741.9 L 1035.94 1741.9 L 1035.79 1723.97 L 1016.95 1724.07 L 1016.92 1518.85 C 1041.94 1518.35 1068.27 1518.73 1093.4 1518.69 C 1095.06 1522.86 1099.79 1536.7 1103.01 1538.62 C 1104.61 1538.36 1108.44 1537.59 1109.31 1538.4 C 1112.92 1541.73 1119.33 1561.15 1120.93 1565.24 L 1139.91 1518.68 z"/>
<path transform="translate(0,0)" fill="rgb(4,202,165)" d="M 1152.89 1537.38 C 1167.6 1537.66 1182.31 1537.77 1197.01 1537.74 L 1197.13 1704.79 L 1159.03 1704.77 L 1159.2 1605.09 C 1151.23 1619.49 1137.05 1656.74 1129.47 1674.06 L 1102.94 1674.09 C 1092.5 1650.59 1083.85 1627.47 1072.98 1603.69 C 1074.49 1636.2 1073.98 1671.37 1074.04 1704.12 C 1068.09 1705.38 1043.38 1704.93 1036.37 1704.9 L 1036.31 1537.8 L 1055.54 1538 L 1080.83 1537.63 C 1088.53 1555.41 1095.32 1572.89 1102.41 1590.89 C 1106.13 1600.34 1111.84 1615.72 1116.85 1624.2 C 1129.31 1595.45 1141.32 1566.51 1152.89 1537.38 z"/>
<path transform="translate(0,0)" fill="rgb(4,202,165)" d="M 1578.97 1537.66 C 1610.44 1537.55 1643.83 1536.16 1674.84 1539.01 C 1698.69 1543.27 1699.63 1567.02 1698.99 1585.55 C 1698.08 1612.13 1704.78 1631.3 1676.84 1644.96 C 1686.02 1664.78 1694.82 1684.76 1703.26 1704.9 L 1665.92 1704.72 L 1663.97 1704.2 C 1661.17 1700.57 1640.84 1654.62 1637.38 1647.02 L 1618.22 1646.96 L 1618.09 1704.67 C 1605.2 1704.89 1591.97 1704.79 1579.05 1704.83 L 1578.97 1537.66 z"/>
<path transform="translate(0,0)" fill="rgb(18,21,49)" d="M 1618 1571.17 C 1628.3 1571.34 1638.56 1570.65 1648.79 1570.99 C 1663.27 1571.48 1660.67 1584.04 1660.26 1594.08 C 1660 1600.6 1660.02 1606.45 1658.97 1612.92 C 1647.39 1614.13 1630.37 1613.86 1618.27 1613.96 C 1617.81 1600.2 1618.06 1585.04 1618 1571.17 z"/>
<path transform="translate(0,0)" fill="rgb(4,202,165)" d="M 1383.49 1537.84 L 1421.47 1537.64 L 1421.35 1660.48 C 1421.35 1666.97 1421.86 1700.27 1421 1703.97 L 1419.05 1704.7 L 1385.02 1704.87 C 1366.89 1671.86 1347.47 1638.23 1328.95 1605.34 C 1328.31 1637.58 1328.96 1671.99 1328.98 1704.41 C 1316.48 1704.71 1303.46 1704.59 1290.91 1704.64 L 1290.91 1537.78 C 1303.97 1537.84 1317.03 1537.77 1330.09 1537.6 C 1347.95 1567.36 1365.62 1601.24 1382.85 1631.81 C 1384.09 1601.89 1383.23 1568.27 1383.49 1537.84 z"/>
<path transform="translate(0,0)" fill="rgb(4,202,165)" d="M 1449.02 1537.79 C 1483.81 1536.91 1522.51 1537.63 1557.48 1537.68 L 1557.14 1572.23 C 1534.04 1572.34 1510.94 1572.32 1487.84 1572.16 C 1487.75 1582.13 1487.89 1592.22 1487.93 1602.2 L 1542.13 1602.12 L 1542.25 1636.28 C 1524.38 1636.51 1505.79 1636.17 1487.86 1636.1 L 1487.77 1650.99 L 1488.04 1670.11 L 1557.18 1670.18 L 1557.12 1704.53 L 1449.07 1704.83 C 1448.44 1649.55 1449.02 1593.16 1449.02 1537.79 z"/>
<path transform="translate(0,0)" fill="rgb(4,202,165)" d="M 1224.23 1537.81 C 1236.56 1537.4 1250.78 1537.74 1263.26 1537.74 L 1263.35 1704.68 L 1224.5 1704.65 C 1223.22 1650.79 1224.36 1592.03 1224.23 1537.81 z"/>
<path transform="translate(0,0)" fill="rgb(18,21,49)" d="M 471.588 1518.78 L 547.999 1518.84 C 547.922 1524.27 546.562 1534.61 551.261 1537.82 C 555.767 1534.19 554.523 1524.32 554.416 1518.91 C 600.841 1518.2 649.572 1518.63 696.09 1518.92 L 696.108 1538.46 L 712.008 1538.72 L 711.913 1741.87 L 649.826 1741.89 L 638.826 1741.84 C 638.828 1735.15 638.788 1728.46 638.706 1721.77 C 630.754 1728.18 620.284 1738.84 610.135 1740.16 C 584.998 1743.27 557.715 1742.52 532.4 1741.15 C 514.771 1740.2 506.986 1729.98 497.655 1717.17 C 479.628 1743.6 462.128 1742.36 432.512 1742.04 C 414.532 1741.85 385.997 1745.04 370.602 1734.93 C 361.571 1728.08 354.201 1718.11 345.574 1710.81 C 324.784 1693.24 329.773 1657.59 329.945 1633.23 L 341.438 1632.95 C 333.331 1621.88 330.567 1614.68 330.346 1600.93 C 329.759 1564.34 326.247 1528.36 371.925 1519.23 C 373.414 1519.12 374.904 1519.02 376.395 1518.94 C 396.527 1517.85 419.834 1518.69 440.074 1519.08 C 452.032 1519.3 463.011 1526.27 471.727 1534.19 L 471.588 1518.78 z"/>
<path transform="translate(0,0)" fill="rgb(254,105,50)" d="M 372.477 1538.19 C 386.111 1537.31 399.423 1537.65 413.133 1537.48 C 435.3 1537.21 460.816 1535.28 464.603 1563.96 C 465.732 1572.52 465.213 1581.35 465.104 1590.05 L 426.794 1590.04 C 427.034 1579.44 428.455 1568.77 413.631 1570.12 C 405.361 1570.87 397.155 1571 388.852 1571.14 C 388.158 1580.1 388.237 1586.31 388.646 1595.24 C 409.728 1603.63 436.279 1604.93 455.762 1616.44 C 461.668 1619.84 466.701 1630.15 467.025 1636.75 C 468.285 1662.54 475.059 1699.44 440.654 1704.72 C 433.458 1704.78 425.872 1704.89 418.676 1704.88 C 365.137 1704.83 348.928 1712.51 349.285 1651.04 C 362.019 1651.12 374.95 1650.92 387.7 1650.84 C 387.615 1657.48 387.934 1664.33 388.154 1670.98 C 397.677 1671.03 420.507 1673.85 426.328 1669.45 C 430.51 1662.74 428.848 1654.28 428.378 1646.05 C 386.279 1628.53 344.088 1640.59 349.218 1582.53 C 351.156 1560.59 346.727 1547.02 372.477 1538.19 z"/>
<path transform="translate(0,0)" fill="rgb(254,105,50)" d="M 572.172 1537.71 L 611.283 1537.68 L 611.247 1573.5 L 611.42 1641.57 C 611.484 1668.44 616.86 1702.69 579.739 1704.81 C 565.194 1705.64 549.757 1704.09 535.053 1704.95 C 522.807 1705.66 508.663 1704.51 499.628 1695.19 C 495.635 1691.03 492.91 1685.82 491.774 1680.17 C 489.889 1671.06 490.624 1638.73 490.646 1628.35 L 490.559 1537.62 L 529.575 1537.86 C 529.561 1554.01 527.928 1660.7 531.83 1668.16 C 539.085 1670.57 563.174 1669.19 571.881 1668.97 C 573.379 1657.8 572.743 1635.9 572.722 1623.59 C 572.714 1594.96 572.531 1566.34 572.172 1537.71 z"/>
<path transform="translate(0,0)" fill="rgb(254,105,50)" d="M 638.487 1537.46 C 651.019 1537.88 664.519 1537.71 677.136 1537.76 L 677.06 1704.59 C 664.048 1704.73 651.034 1704.74 638.021 1704.62 L 637.863 1590.42 C 637.85 1580.29 637.163 1545.68 638.487 1537.46 z"/>
<path transform="translate(0,0)" fill="rgb(18,21,49)" d="M 745.099 1518.78 L 869.304 1518.81 C 882.748 1518.78 918.445 1517.69 930.024 1519.64 C 938.377 1520.96 946.233 1524.47 952.797 1529.8 C 965.683 1540.34 986.692 1567.43 986.772 1585.47 C 986.929 1620.76 987.277 1656.29 986.993 1691.59 C 986.883 1705.37 981.899 1717.29 973.071 1727.75 C 962.137 1738.95 949.373 1741.64 934.282 1741.81 C 917.538 1742.01 900.796 1741.94 884.051 1741.93 L 764.266 1741.97 L 764.473 1724.19 L 745.234 1724.14 L 745.099 1518.78 z"/>
<path transform="translate(0,0)" fill="rgb(254,105,50)" d="M 830.946 1537.72 L 891.858 1537.55 C 917.505 1537.49 950.483 1533.02 951.888 1568.86 C 952.27 1594.16 952.597 1619.66 952.26 1644.97 C 952.013 1663.46 955.808 1681.18 942.958 1695.76 C 927.463 1708.4 903.316 1704.92 883.935 1704.83 L 830.951 1704.81 L 830.946 1537.72 z"/>
<path transform="translate(0,0)" fill="rgb(18,21,49)" d="M 870.155 1572.48 C 877.967 1572.34 907.494 1570.05 911.931 1575.73 C 913.573 1584.25 913.67 1659.59 912.356 1669.05 C 898.389 1669.96 884.085 1669.64 870.061 1669.57 C 869.878 1637.21 869.909 1604.84 870.155 1572.48 z"/>
<path transform="translate(0,0)" fill="rgb(254,105,50)" d="M 764.724 1537.76 L 803.863 1537.67 C 802.538 1591.52 803.396 1650.67 803.748 1704.82 L 764.696 1704.6 C 765.307 1649.34 764.754 1593.1 764.724 1537.76 z"/>
<path transform="translate(0,0)" fill="rgb(18,21,49)" d="M 1527.99 375.296 L 1619.12 371.72 C 1619.56 377.345 1619.74 383.531 1620.01 389.215 L 1634.96 388.945 C 1636.17 418.573 1638.91 456.928 1638.99 485.929 C 1628.02 494.847 1579.03 532.598 1568.84 537.063 C 1563.64 539.342 1505.6 540.738 1495.31 541.062 L 1495.03 523.573 L 1480.03 523.884 C 1478.97 498.131 1478.21 472.367 1477.75 446.597 C 1487.29 430.641 1516.4 390.002 1527.99 375.296 z"/>
<path transform="translate(0,0)" fill="rgb(254,105,50)" d="M 1620.01 389.215 L 1634.96 388.945 C 1636.17 418.573 1638.91 456.928 1638.99 485.929 C 1628.02 494.847 1579.03 532.598 1568.84 537.063 C 1563.64 539.342 1505.6 540.738 1495.31 541.062 L 1495.03 523.573 C 1514.57 522.43 1534.13 521.545 1553.69 520.917 C 1560.57 516.92 1572.72 507.377 1579.57 502.291 L 1623.4 469.971 C 1622.99 445.656 1622.05 413.124 1620.01 389.215 z"/>
<path transform="translate(0,0)" fill="rgb(254,105,50)" d="M 1599.61 389.172 L 1600.5 389.617 C 1595.79 404.419 1587.07 431.23 1581.04 444.934 C 1574.29 451.582 1537.02 477.884 1527.82 483.849 L 1523.85 486.235 C 1514.6 492.209 1505.28 498.08 1495.89 503.845 C 1495.3 496.328 1495.19 490.61 1495.21 483.049 L 1493.73 451.284 C 1506.87 434.436 1518.01 414.414 1532.04 397.936 C 1535.18 405.492 1536.39 408.585 1538.2 416.481 C 1541.76 412.838 1543.25 411 1547.62 408.273 C 1547.18 405.135 1542.86 394.681 1541.46 391.087 C 1556.73 389.704 1584.46 388.509 1599.61 389.172 z"/>
<path transform="translate(0,0)" fill="rgb(246,101,47)" d="M 1599.61 389.172 L 1600.5 389.617 C 1595.79 404.419 1587.07 431.23 1581.04 444.934 C 1572.3 434.98 1551.69 419.024 1547.62 408.273 C 1547.18 405.135 1542.86 394.681 1541.46 391.087 C 1556.73 389.704 1584.46 388.509 1599.61 389.172 z"/>
<path transform="translate(0,0)" fill="rgb(255,255,255)" d="M 1541.46 391.087 C 1556.73 389.704 1584.46 388.509 1599.61 389.172 C 1594.4 392.623 1556.48 404.839 1547.62 408.273 C 1547.18 405.135 1542.86 394.681 1541.46 391.087 z"/>
<path transform="translate(0,0)" fill="rgb(255,255,255)" d="M 1493.73 451.284 C 1506.87 434.436 1518.01 414.414 1532.04 397.936 C 1535.18 405.492 1536.39 408.585 1538.2 416.481 C 1527.62 427.253 1515.43 446.583 1504.5 459.037 C 1496.27 466.404 1499.31 476.795 1495.21 483.049 L 1493.73 451.284 z"/>
<path transform="translate(0,0)" fill="rgb(224,73,24)" d="M 1495.21 483.049 C 1499.31 476.795 1496.27 466.404 1504.5 459.037 L 1504.6 461.646 C 1510.04 466.481 1523.44 478.578 1527.82 483.849 L 1523.85 486.235 C 1514.6 492.209 1505.28 498.08 1495.89 503.845 C 1495.3 496.328 1495.19 490.61 1495.21 483.049 z"/>
<path transform="translate(0,0)" fill="rgb(196,83,33)" d="M 1504.6 461.646 C 1510.04 466.481 1523.44 478.578 1527.82 483.849 L 1523.85 486.235 C 1521.34 483.061 1511.87 480.112 1508.64 475.909 C 1504.41 470.403 1505.68 467.412 1504.6 461.646 z"/>
<path transform="translate(0,0)" fill="rgb(224,73,24)" d="M 1580.28 458.831 C 1585.36 459.428 1596 464.576 1600.79 466.803 C 1583.24 479.18 1566.21 492.801 1548.4 504.851 L 1534.04 505.152 C 1526.91 505.738 1519.47 505.88 1512.3 506.121 C 1515.77 503.522 1519.81 500.919 1523.52 498.635 C 1543.27 486.489 1561.18 471.893 1580.28 458.831 z"/>
<path transform="translate(0,0)" fill="rgb(224,73,24)" d="M 1604.14 407.604 C 1606.76 414.929 1607 446.093 1607.2 454.853 L 1599.15 451.065 L 1589.61 446.807 C 1593.06 434.801 1599.25 419.05 1604.14 407.604 z"/>
<path transform="translate(0,0)" fill="rgb(254,105,50)" d="M 635.245 623.449 C 638.885 626.051 645.622 644.131 647.742 649.324 C 649.262 646.214 650.979 643.658 652.827 640.75 C 657.955 651.674 663.195 664.876 668.116 676.16 C 680.9 682.148 692.666 686.883 705.182 693.636 L 694.244 698.135 C 703.49 702.98 712.425 707.017 721.904 711.329 C 664.821 742.063 682.987 718.357 654.067 781.859 C 649.431 772.646 645.284 762.742 641.136 753.266 L 635.825 766.139 C 631.148 754.774 624.508 737.763 618.783 727.352 C 610.41 722.59 594.342 715.912 584.82 711.275 L 594.763 706.943 C 586.513 701.541 576.878 697.442 567.849 693.469 C 619.723 668.489 612.765 680.241 635.245 623.449 z"/>
<path transform="translate(0,0)" fill="rgb(254,105,50)" d="M 1241.35 1066.55 C 1247.93 1072.75 1249.41 1087.66 1254.29 1090.54 C 1257.07 1088.48 1256.84 1086.84 1258.3 1082.85 C 1264.64 1094.86 1268.78 1107.55 1275.11 1119.75 C 1284.53 1125.26 1299.94 1130.84 1310.86 1136.42 L 1300.91 1141.42 C 1309.56 1144.88 1319.46 1149.68 1328.04 1153.59 C 1266.44 1183.84 1290.15 1164.01 1260.02 1222.44 L 1258.76 1222.75 C 1255.23 1216.96 1250.2 1204.94 1247.23 1198.37 L 1241.8 1209.09 C 1237.04 1197.23 1230.39 1181.56 1224.32 1170.47 C 1214.3 1164.9 1201.64 1159.22 1191.19 1154.22 L 1201.46 1149.02 L 1175.14 1136.63 C 1227.4 1111.44 1218.51 1121.77 1241.35 1066.55 z"/>
<path transform="translate(0,0)" fill="rgb(18,21,49)" d="M 1096.36 1199.51 C 1105.17 1206.62 1143.89 1244.95 1149.17 1253.49 C 1153.1 1257.39 1163.79 1266.76 1163.87 1271.57 C 1159.89 1279.11 1119.29 1319.15 1111.87 1324.81 C 1104.65 1320.14 1098.6 1315.38 1093.47 1308.31 C 1085.81 1298.34 1044.78 1264.08 1045.48 1253.98 C 1045.69 1250.87 1047.51 1247.99 1049.4 1245.61 C 1054.22 1239.55 1060.84 1234.3 1066.4 1228.86 C 1076.38 1219.07 1085.97 1208.86 1096.36 1199.51 z"/>
<path transform="translate(0,0)" fill="rgb(254,105,50)" d="M 1149.17 1253.49 C 1153.1 1257.39 1163.79 1266.76 1163.87 1271.57 C 1159.89 1279.11 1119.29 1319.15 1111.87 1324.81 C 1104.65 1320.14 1098.6 1315.38 1093.47 1308.31 C 1095.44 1307.62 1098.26 1306.71 1099.77 1305.26 C 1109.81 1295.58 1144.19 1263.68 1149.17 1253.49 z"/>
<path transform="translate(0,0)" fill="rgb(4,202,165)" d="M 1096.14 1221.69 C 1099.59 1223.37 1124.6 1249.33 1129.45 1254.22 C 1118.46 1264.93 1107.61 1275.79 1096.91 1286.78 C 1094.43 1285.89 1068.08 1258.78 1063.86 1254.59 C 1074.34 1243.35 1085.1 1232.38 1096.14 1221.69 z"/>
<path transform="translate(0,0)" fill="rgb(18,21,49)" d="M 748.486 787.348 C 753.509 797.01 756.626 805.536 762.646 815.048 L 766.316 808.603 C 769.45 811.259 776.724 828.655 778.973 833.741 C 788.849 840.322 798.298 844.079 808.749 849.571 C 805.557 851.088 801.714 852.786 798.709 854.548 C 807.297 858.776 815.831 863.114 824.308 867.56 C 780.365 890.031 786.252 887.484 765.679 928.302 C 760.957 919.032 757.515 909.754 753.421 901.645 L 748.483 911.121 C 743.94 900.958 740.203 889.013 732.873 880.781 C 724.619 877.929 713.467 871.693 706.105 867.114 L 715.912 862.867 C 707.79 858.288 697.634 853.427 689.152 849.148 C 730.378 826.264 726.865 834.773 748.486 787.348 z"/>
<path transform="translate(0,0)" fill="rgb(254,105,50)" d="M 753.421 901.645 C 763.172 876.133 773.433 864.711 798.709 854.548 C 807.297 858.776 815.831 863.114 824.308 867.56 C 780.365 890.031 786.252 887.484 765.679 928.302 C 760.957 919.032 757.515 909.754 753.421 901.645 z"/>
<path transform="translate(0,0)" fill="rgb(224,73,24)" d="M 715.912 862.867 C 723.99 867.509 729.112 871.979 732.873 880.781 C 724.619 877.929 713.467 871.693 706.105 867.114 L 715.912 862.867 z"/>
<path transform="translate(0,0)" fill="rgb(224,73,24)" d="M 762.646 815.048 L 766.316 808.603 C 769.45 811.259 776.724 828.655 778.973 833.741 C 771.578 830.188 766.616 821.949 762.646 815.048 z"/>
<path transform="translate(0,0)" fill="rgb(254,105,50)" d="M 719.852 849.133 C 744.366 836.025 735.77 837.355 748.51 820.906 C 750.814 822.005 750.704 822.937 752.278 825.631 C 759.883 838.49 764.645 841.246 777.058 849.387 C 762.575 858.771 757.846 863.056 748.986 878.048 C 741.461 865.602 738.972 862.905 727.754 853.496 L 719.852 849.133 z"/>
<path transform="translate(0,0)" fill="rgb(255,255,255)" d="M 719.852 849.133 C 744.366 836.025 735.77 837.355 748.51 820.906 C 750.814 822.005 750.704 822.937 752.278 825.631 C 743.83 841.303 742.709 844.033 727.754 853.496 L 719.852 849.133 z"/>
<path transform="translate(0,0)" fill="rgb(4,202,165)" d="M 1531.7 721.595 C 1577.01 701.332 1567.35 707.605 1587.8 665.457 C 1591.64 672.105 1595.4 681.411 1598.55 688.607 L 1600.3 683.76 L 1601.94 683.171 C 1606.77 686.545 1611.22 701.06 1614.75 707.795 C 1624.58 713.168 1633.86 717.153 1643.33 722.17 C 1640.02 723.576 1636.61 724.887 1633.48 726.604 C 1642.18 730.27 1649.83 733.774 1658 738.574 C 1612.91 760.965 1624.39 753.046 1602.69 795.011 C 1598.77 786.862 1595.56 779.886 1592.17 771.512 C 1590.67 774.72 1590.63 774.995 1588.35 777.891 C 1584.92 774.409 1577.34 757.059 1574.93 751.922 C 1569.15 750.663 1550.67 742.026 1546.58 737.754 C 1547.99 735.584 1551.48 734.224 1554.04 732.87 C 1546.63 729.351 1539.03 725.334 1531.7 721.595 z"/>
<path transform="translate(0,0)" fill="rgb(254,105,50)" d="M 1633.48 726.604 C 1642.18 730.27 1649.83 733.774 1658 738.574 C 1612.91 760.965 1624.39 753.046 1602.69 795.011 C 1598.77 786.862 1595.56 779.886 1592.17 771.512 C 1593.2 768.555 1594.27 765.612 1595.39 762.686 C 1603.81 740.748 1613.08 735.765 1633.48 726.604 z"/>
<path transform="translate(0,0)" fill="rgb(224,73,24)" d="M 1554.04 732.87 C 1565.41 735.035 1571.15 741.112 1574.93 751.922 C 1569.15 750.663 1550.67 742.026 1546.58 737.754 C 1547.99 735.584 1551.48 734.224 1554.04 732.87 z"/>
<path transform="translate(0,0)" fill="rgb(196,83,33)" d="M 1598.55 688.607 L 1600.3 683.76 L 1601.94 683.171 C 1606.77 686.545 1611.22 701.06 1614.75 707.795 C 1604.93 703.445 1602.63 697.936 1598.55 688.607 z"/>
<path transform="translate(0,0)" fill="rgb(254,105,50)" d="M 1208.76 333.318 C 1210.25 336.897 1217.06 354.551 1219.26 355.535 C 1220.77 352.385 1219.7 353.076 1222.05 351.753 C 1224.56 354.266 1230.39 366.983 1232.45 371.03 C 1240.04 374.625 1246.73 377.815 1254.04 381.907 L 1243.65 386.18 C 1251.67 389.921 1260.03 394.258 1267.99 398.221 C 1243.07 409.67 1238.63 408.797 1227.37 434.153 C 1225.94 437.74 1225.43 440.721 1222.77 442.896 C 1220.58 441.193 1220.36 439.134 1219.54 436.392 C 1217.09 432.259 1216.64 427.384 1213.74 424.433 C 1210.76 425.621 1211.05 426.653 1208.98 430.187 C 1205.47 422.991 1202.1 415.73 1198.87 408.408 C 1192.66 405.12 1182.19 402.132 1179.44 396.924 C 1181.61 394.161 1182.73 394.646 1186.91 393.364 C 1178.69 389.597 1170.54 385.698 1162.44 381.667 C 1197.55 365.2 1193.45 369.621 1208.76 333.318 z"/>
<path transform="translate(0,0)" fill="rgb(246,101,47)" d="M 1219.54 436.392 C 1219.91 436.242 1223.58 435.924 1224.24 435.858 C 1225.97 434.26 1224.94 434.864 1227.37 434.153 C 1225.94 437.74 1225.43 440.721 1222.77 442.896 C 1220.58 441.193 1220.36 439.134 1219.54 436.392 z"/>
<path transform="translate(0,0)" fill="rgb(18,21,49)" d="M 1362.31 385.186 C 1389.28 369.823 1386.73 377.907 1399.72 345.446 C 1403.09 351.986 1407.01 361.634 1410.07 368.56 L 1412.8 364.207 C 1417.45 363.366 1419.57 372.106 1420.37 375.824 C 1426.78 379.418 1431.65 381.679 1438.38 384.677 L 1428.7 389.606 C 1436.77 394.385 1445.68 397.433 1453.6 401.818 C 1426.39 414.811 1427.15 413.862 1415.26 442.411 C 1412.14 434.989 1407.89 424 1403.44 417.662 C 1401.99 420.939 1402.55 421.279 1400.07 422.53 C 1397.51 420.672 1393.97 412.257 1391.84 408.416 C 1387.35 407.504 1378.48 404.622 1377.74 399.65 C 1379.98 396.909 1381.79 396.84 1385.24 395.899 C 1377.35 391.867 1370.63 390.081 1362.31 385.186 z"/>
<path transform="translate(0,0)" fill="rgb(254,105,50)" d="M 1403.44 417.662 C 1410.71 400.351 1411.62 396.606 1428.7 389.606 C 1436.77 394.385 1445.68 397.433 1453.6 401.818 C 1426.39 414.811 1427.15 413.862 1415.26 442.411 C 1412.14 434.989 1407.89 424 1403.44 417.662 z"/>
<path transform="translate(0,0)" fill="rgb(224,73,24)" d="M 1385.24 395.899 C 1389.5 399.979 1390.46 402.617 1391.84 408.416 C 1387.35 407.504 1378.48 404.622 1377.74 399.65 C 1379.98 396.909 1381.79 396.84 1385.24 395.899 z"/>
<path transform="translate(0,0)" fill="rgb(224,73,24)" d="M 1410.07 368.56 L 1412.8 364.207 C 1417.45 363.366 1419.57 372.106 1420.37 375.824 C 1415.38 374.123 1413.09 372.795 1410.07 368.56 z"/>
<path transform="translate(0,0)" fill="rgb(18,21,49)" d="M 1625.22 879.083 C 1629.11 871.684 1633.48 860.129 1636.77 852.134 C 1640.15 859.766 1643.56 869.83 1647.76 876.513 L 1649.15 876.779 C 1650.14 874.921 1650.74 873.895 1651.91 872.149 C 1654.96 873.993 1657.25 880.467 1658.89 884.108 C 1664.51 886.866 1670.06 889.758 1675.54 892.78 L 1666.11 897.486 L 1691.14 909.693 C 1664.92 922.258 1665.1 921.307 1653.18 948.142 C 1649.68 941.144 1644.79 929.98 1641.28 923.659 C 1639.37 927.723 1639.85 928.667 1636.77 930.103 C 1634.31 928.347 1631.46 919.954 1629.97 916.658 C 1624.69 914.398 1617.39 912.312 1614.95 907.72 C 1616.44 904.854 1617.35 905.307 1621.16 903.634 C 1612.64 899.862 1606.92 897.316 1598.96 892.629 C 1608.37 888.384 1616.4 884.495 1625.22 879.083 z"/>
<path transform="translate(0,0)" fill="rgb(254,105,50)" d="M 1641.28 923.659 C 1646.57 907.478 1650.28 903.091 1666.11 897.486 L 1691.14 909.693 C 1664.92 922.258 1665.1 921.307 1653.18 948.142 C 1649.68 941.144 1644.79 929.98 1641.28 923.659 z"/>
<path transform="translate(0,0)" fill="rgb(224,73,24)" d="M 1621.16 903.634 C 1627.04 907.157 1627.54 910.021 1629.97 916.658 C 1624.69 914.398 1617.39 912.312 1614.95 907.72 C 1616.44 904.854 1617.35 905.307 1621.16 903.634 z"/>
<path transform="translate(0,0)" fill="rgb(254,105,50)" d="M 597.401 875.712 C 602.323 880.576 605.891 892.883 610.072 898.295 C 614.942 904.601 627.539 909.072 635.14 912.309 C 611.443 922.563 609.633 923.322 599.033 947.285 C 596.837 947.069 593.935 939.723 592.86 937.103 C 586.801 922.347 575.947 918.649 562.28 912.268 C 586.837 900.377 586.856 900.79 597.401 875.712 z"/>
<path transform="translate(0,0)" fill="rgb(4,202,165)" d="M 842.435 688.482 C 844.266 690.121 847.473 695.216 848.193 697.312 C 854.451 715.543 862.365 717.046 879.599 724.601 C 853.5 738.108 855.48 732.881 843.68 762.184 C 842.518 760.773 835.216 745.872 834.652 743.869 C 832.145 734.964 815.605 728.92 806.351 724.571 L 810.551 722.798 C 833.237 713.137 833.336 710.994 842.435 688.482 z"/>
<path transform="translate(0,0)" fill="rgb(254,105,50)" d="M 1333.37 1235.57 C 1338.07 1240.07 1340.85 1251.28 1345.46 1255.95 C 1350.39 1260.93 1359.97 1264.35 1366.46 1267.09 C 1358.37 1270.58 1352.11 1273.29 1344.42 1277.52 C 1340.78 1283.49 1337.69 1291.61 1334.94 1298.2 C 1331.98 1298.05 1327.88 1283.39 1325.05 1280.07 C 1319.73 1273.85 1309.9 1270.33 1302.45 1266.6 C 1310.41 1263.42 1316.72 1261.47 1323.96 1256.77 C 1327.31 1250.94 1330.7 1242.02 1333.37 1235.57 z"/>
<path transform="translate(0,0)" fill="rgb(254,105,50)" d="M 1628.22 568.529 C 1630.03 570.171 1631.83 573.69 1632.89 575.919 C 1639.14 589.092 1644.31 590.005 1657.16 595.909 C 1638.27 604.009 1637.89 604.603 1629.53 623.219 C 1624.5 617.893 1622.56 607.286 1615.69 602.981 C 1611.17 600.144 1605.83 597.538 1601.05 595.092 C 1619.7 588.562 1620.45 586.704 1628.22 568.529 z"/>
<path transform="translate(0,0)" fill="rgb(4,202,165)" d="M 741.299 603.426 C 746.03 606.61 748.091 618.494 755.175 623.004 C 759.837 625.971 764.16 627.629 769.18 629.808 C 762.844 633.045 757.331 636.09 751.165 639.647 C 747.975 645.075 745.866 650.698 743.482 656.519 C 738.379 653.386 741.158 643.471 725.194 634.722 L 716.293 629.822 C 723.746 626.666 727.229 625.483 733.942 620.993 C 737.924 613.905 738.668 611.22 741.299 603.426 z"/>
<path transform="translate(0,0)" fill="rgb(3,1,4)" fill-opacity="0.0156863" d="M 1698.34 112.391 C 1699.51 112.274 1700.67 113.635 1701.47 114.321 L 1701.43 116.345 C 1698.21 115.65 1698.11 115.379 1696.59 113.237 L 1698.34 112.391 z"/>
</svg>